<?xml version="1.0" encoding="UTF-8" standalone="no"?><!DOCTYPE svg PUBLIC "-//W3C//DTD SVG 1.1//EN" "http://www.w3.org/Graphics/SVG/1.1/DTD/svg11.dtd"><svg width="100%" height="100%" viewBox="0 0 800 800" version="1.1" xmlns="http://www.w3.org/2000/svg" xmlns:xlink="http://www.w3.org/1999/xlink" xml:space="preserve" xmlns:serif="http://www.serif.com/" style="fill-rule:evenodd;clip-rule:evenodd;stroke-linecap:round;stroke-linejoin:round;stroke-miterlimit:1.5;"><circle cx="400" cy="400" r="325" style="fill:#080060;"/><circle cx="400" cy="400" r="250" style="fill:none;stroke:#f4d512;stroke-width:33.33px;"/><circle cx="400" cy="400" r="175" style="fill:none;stroke:#f4d512;stroke-width:33.33px;"/><path d="M213.845,353.654c-0,0 -60.572,11.358 -56.366,79.502c0,-0 -13.04,33.651 6.31,49.635l10.516,0c-0,0 2.944,26.501 30.707,27.763c27.762,1.261 38.278,-8.834 44.588,-22.715l68.564,3.365c0,0 4.206,22.715 21.453,26.921c17.246,4.206 53.001,3.786 56.786,-20.191c0,0 13.04,1.262 13.461,-11.778l12.198,-1.262c0,0 3.786,15.143 28.604,14.302c24.818,-0.841 26.08,-12.619 27.342,-17.246l78.239,-5.889c0,-0 0,27.342 21.453,28.183c21.453,0.841 34.492,-1.683 39.961,-20.191c-0,0 10.095,0 10.095,-13.46c0,-0 21.453,-0 20.612,-18.929c-0.842,-18.929 5.468,-100.113 -22.294,-139.653c-0,-0 -8.413,-18.088 -20.612,-19.77c-12.198,-1.683 -166.153,-26.501 -278.044,-7.993c0,0 -39.54,-3.785 -90.017,49.215c-0,0 -11.778,13.882 -23.556,20.191Z" style="fill:#f4d512;"/><g><path d="M386.392,488.969c0,0 16.405,5.889 16.826,-3.785c0.42,-9.675 5.889,-8.834 5.889,-8.834l-1.262,-42.905l-39.541,-34.493l-40.802,13.461l-2.524,32.81l61.414,43.746Z" style="fill:#ffdb04;"/><path d="M608.07,476.35c0,0 12.62,5.048 13.461,-3.365c0.841,-8.413 5.468,-17.246 5.468,-17.246l2.103,-48.795l-32.389,-14.722l-41.644,24.818l10.937,27.341l42.064,31.969Z" style="fill:#ffdb04;"/><path d="M323.716,481.398c0,-0 0,29.445 21.874,31.969c21.873,2.523 43.326,0.841 47.112,-25.66c3.785,-26.5 0.841,-39.961 -12.199,-55.104c-13.04,-15.143 -58.89,0 -64.358,12.199l7.571,36.596Z" style="fill:#080060;"/><path d="M177.333,472.985c0,-0 -2.524,28.183 26.921,31.969c29.445,3.786 39.54,-15.143 42.485,-28.604l-20.611,-27.762l-48.795,24.397Z" style="fill:#080060;"/><path d="M424.67,475.088c0,0 0,17.246 20.612,16.826c20.611,-0.421 25.659,-7.992 28.604,-19.77l-14.302,-22.294l-34.914,25.238Z" style="fill:#080060;"/><path d="M561.379,464.151c0,0 -2.944,33.652 19.77,34.914c22.715,1.262 35.334,-11.778 34.493,-37.858c-0.841,-26.08 -7.572,-39.961 -37.437,-37.016l-16.826,39.96Z" style="fill:#080060;"/><path d="M198.786,474.668c-0,-0 -0.421,17.666 18.929,18.087c19.349,0.421 19.77,-16.405 15.984,-21.453l-21.873,-3.785l-13.04,7.151Z" style="fill:#36f;"/><path d="M216.339,356.632c-0,0 -56.366,11.357 -56.366,77.819c-0,-0 -7.572,29.445 4.206,43.326c0,-0 78.66,1.682 164.051,7.992c-0,0 2.524,-2.103 2.103,-7.571c-0.421,-5.469 3.786,-52.16 37.437,-60.152c33.651,-7.992 38.699,53.842 37.017,60.993c-0,-0 104.685,-4.691 163.642,-8.729c-0,-0 8.514,-21.302 6.831,-28.453c0,0 10.937,-33.23 29.866,-25.659c18.929,7.572 16.825,44.168 17.667,48.374c-0,0 18.929,0 19.349,-12.619c0.421,-12.619 0.842,-55.945 -2.524,-81.184c-3.365,-25.238 -18.928,-68.144 -32.81,-70.668c-13.881,-2.524 -128.716,-14.722 -169.098,-14.302c-40.381,0.421 -97.589,2.104 -111.89,6.731c-0,-0 -25.239,-2.945 -61.414,26.921c-36.175,29.865 -39.347,33.56 -48.067,37.181Z" style="fill:#36f;"/><ellipse cx="368.094" cy="471.513" rx="19.56" ry="29.655" style="fill:#36f;"/><ellipse cx="595.872" cy="462.259" rx="14.722" ry="26.29" style="fill:#36f;"/><path d="M381.344,352.261c0,-0 39.12,-56.366 63.097,-56.787c-0,0 17.246,-2.103 18.087,4.207c0.841,6.309 10.096,52.58 -6.73,55.104l-65.62,6.309c-0,0 -19.796,3.279 -8.834,-8.833Z" style="fill:#080060;"/><path d="M411.273,299.707c0,0 -38.699,53.506 -61.918,55.189c-23.219,1.682 -112.059,1.346 -120.135,0.336c-0,0 36.68,-37.689 63.264,-50.813c0,-0 9.086,-7.404 118.789,-4.712Z" style="fill:#080060;"/><path d="M475.211,307.784c-0,-0 5.384,19.181 7.74,42.4c-0,0 -0.673,12.788 8.749,12.451c9.423,-0.336 124.174,-1.009 124.174,-1.009c-0,-0 8.076,1.346 9.422,-8.413c1.346,-9.759 -1.683,-25.912 -10.768,-41.055c-0,0 -2.693,-5.047 -7.067,-5.72c-4.375,-0.673 -34.998,-6.394 -123.164,-10.432c-0,-0 -15.816,-4.038 -9.086,11.778Z" style="fill:#080060;"/><path d="M176.481,387.322c0,-0 41.997,2.369 93.686,-0c-0,-0 2.369,13.784 8.184,16.799l-9.477,0.646c0,-0 -5.815,-1.292 -11.845,7.968c-6.03,9.261 -12.06,23.906 -17.66,24.552c-5.6,0.647 -33.167,-1.507 -58.15,-1.292c0,0 -5.599,1.077 -6.461,-9.261c-0.861,-10.337 0,-23.475 -4.092,-23.475c0,0 -1.076,-9.045 5.815,-15.937Z" style="fill:#080060;"/><path d="M270.167,387.322c-0,-0 57.566,-4.838 68.248,-7.422c10.683,-2.585 1.551,11.716 -4.307,11.888c-0,0 -9.821,14.645 -15.851,15.334c-6.031,0.689 -34.459,4.652 -40.145,-2.756c-5.686,-7.409 -5.725,-7.554 -7.945,-17.044Z" style="fill:#f4d512;"/><path d="M176.458,387.136c0,0 -1.551,0 -1.551,-2.412c0,-0 -5.858,7.064 -8.442,14.473c-0,-0 2.068,3.101 4.135,3.618c0,-0 -1.206,-7.581 5.858,-15.679Z" style="fill:#f4d512;"/><path d="M181.148,442.798l-0.138,14.335l47.692,1.792l-0.276,-15.3l-47.278,-0.827Z" style="fill:#080060;"/><path d="M268.805,456.106c0,-0 3.963,-7.237 12.233,-7.753c8.27,-0.517 26.878,-2.757 24.121,6.202c0,0 -16.54,3.618 -36.354,1.551Z" style="fill:#f4d512;"/><path d="M165.428,451.454c0,-0 0,-6.547 -4.824,-8.098c0,-0 -1.378,8.442 4.824,8.098Z" style="fill:#f4d512;"/><path d="M402.921,346.28c-0,-0 -0.689,-14.749 11.854,-14.611c12.543,0.138 21.916,-1.654 22.329,14.059c0,0 0.827,7.995 -11.992,8.133c-12.818,0.137 -18.883,0.551 -21.226,2.205c-2.344,1.654 -6.341,2.619 -9.235,0.276c-2.895,-2.344 -2.481,-11.303 8.27,-10.062Z" style="fill:#36f;"/><ellipse cx="495.427" cy="379.752" rx="5.341" ry="7.581" style="fill:#080060;"/><ellipse cx="468.893" cy="380.096" rx="6.547" ry="7.581" style="fill:#080060;"/><path d="M492.187,372.963c0,0 3.033,7.168 1.792,13.784c0,-0 2.206,1.792 3.584,-0.414c0,0 1.241,-8.959 -1.792,-13.645c0,-0 -1.792,-1.379 -3.584,0.275Z" style="fill:#36f;"/><path d="M462.415,378.339l15.3,0.138c-0,-0 1.792,1.792 0.137,3.721l-15.161,0.138c-0,0 -2.206,-2.067 -0.276,-3.997Z" style="fill:#36f;"/></g><path id="Reply--small-" serif:id="Reply (small)" d="M78.443,167.481l-54.994,-6.283l81.951,107.93l104.183,-86.665l-54.994,-6.283c5.316,-46.533 47.738,-80.256 94.272,-74.94c23.689,2.706 43.778,14.429 57.267,31.398c-16.342,-37.008 -51.709,-65.047 -95.704,-70.073c-65.993,-7.54 -124.538,39.769 -131.981,104.916Z" style="fill:#f4d512;fill-rule:nonzero;"/><path id="Reply--small-1" serif:id="Reply (small)" d="M715.318,640.956l54.994,6.283l-81.951,-107.93l-104.182,86.665l54.994,6.283c-5.316,46.533 -47.739,80.256 -94.272,74.94c-23.69,-2.706 -43.778,-14.43 -57.267,-31.398c16.342,37.008 51.708,65.047 95.703,70.073c65.993,7.54 124.539,-39.769 131.981,-104.916Z" style="fill:#f4d512;fill-rule:nonzero;"/></svg>