<?xml version="1.0" encoding="UTF-8" standalone="no"?>
<!DOCTYPE svg PUBLIC "-//W3C//DTD SVG 1.1//EN" "http://www.w3.org/Graphics/SVG/1.1/DTD/svg11.dtd">
<svg width="100%" height="100%" viewBox="0 0 1720 220" version="1.1" xmlns="http://www.w3.org/2000/svg" xmlns:xlink="http://www.w3.org/1999/xlink" xml:space="preserve" xmlns:serif="http://www.serif.com/" style="fill-rule:evenodd;clip-rule:evenodd;stroke-linejoin:round;stroke-miterlimit:2;">
    <g transform="matrix(1,0,0,1,8.0742,0)">
        <g transform="matrix(1.26023,0,0,1.26023,-71.4606,-249.605)">
            <path d="M308.599,337.566L306.852,337.782C270.934,339.41 229.095,340.269 193.126,340.022L190.756,339.179C192.225,347.699 190.124,356.151 184.231,362.044C173.627,372.648 154.736,370.976 142.072,358.312C136.069,352.308 132.535,344.904 131.609,337.646C130.969,337.632 130.384,337.603 129.946,337.552L129.985,337.756C119.285,336.874 111.626,336.057 109.465,333.89C98.131,322.524 86.965,286.759 92.254,281.572C100.649,273.34 122.863,270.401 122.863,270.401C146.528,238.728 181.482,221.373 181.482,221.373C213.33,212.481 251.467,204.516 294.724,202.422C299.383,202.196 310.959,201.678 313.992,201.678L398.1,201.678C402.852,201.678 406.71,205.536 406.71,210.288C406.71,215.039 402.852,218.897 398.1,218.897L343.803,218.897C339.921,219.364 336.909,222.672 336.909,226.678C336.909,231.003 340.42,234.514 344.745,234.514L426.335,234.514C431.086,234.514 434.944,238.372 434.944,243.124C434.944,247.875 431.086,251.733 426.335,251.733L368.064,251.733C363.747,251.741 360.244,255.25 360.244,259.57C360.244,263.895 363.755,267.406 368.081,267.406L403.05,267.406L403.791,267.407C408.543,267.407 412.4,271.265 412.4,276.016C412.4,280.768 408.543,284.626 403.791,284.626L333.13,284.626C328.844,284.672 325.378,288.165 325.378,292.462C325.378,296.787 328.89,300.299 333.215,300.299L400.432,300.299L400.431,300.3L444.046,300.3C448.798,300.3 452.656,304.158 452.656,308.909C452.656,313.661 448.798,317.519 444.046,317.519L396.686,317.519C394.857,323.379 392.685,327.533 390.234,329.145C387.889,330.689 380.191,332.135 368.763,333.437C368.367,333.482 368.188,333.525 367.633,333.623L366.395,333.923C369.931,344.105 368.339,354.936 361.231,362.044C356.567,366.707 350.301,368.997 343.668,369.02C343.668,369.02 343.593,369.021 343.593,369.021C341.395,369.023 339.156,368.777 336.924,368.287L336.688,368.234C330.437,366.812 324.237,363.476 319.072,358.312C313.046,352.285 309.508,344.848 308.599,337.566ZM183.738,363.411C181.417,365.262 178.813,366.649 176.029,367.58C173.246,368.512 170.284,368.988 167.246,369.019C173.349,369.085 179.165,367.244 183.738,363.411ZM149.657,327.469C155.031,322.095 164.605,322.942 171.023,329.361C177.442,335.779 178.289,345.353 172.915,350.728C167.541,356.102 157.966,355.254 151.548,348.836C145.13,342.418 144.282,332.844 149.657,327.469ZM326.657,327.469C332.031,322.095 341.605,322.942 348.023,329.361C354.442,335.779 355.289,345.353 349.915,350.728C344.541,356.102 334.966,355.254 328.548,348.836C322.13,342.418 321.282,332.844 326.657,327.469ZM443.4,276.016C443.4,271.265 439.543,267.407 434.791,267.407L426.017,267.407C421.265,267.407 417.407,271.265 417.407,276.016C417.407,280.768 421.265,284.626 426.017,284.626L434.791,284.626C439.543,284.626 443.4,280.768 443.4,276.016Z" style="fill:rgb(51,102,255);fill-opacity:0.5;"/>
            <path d="M107.34,316.153C117.944,305.549 136.835,307.221 149.499,319.885C162.163,332.549 163.835,351.44 153.231,362.044C142.627,372.648 123.736,370.976 111.072,358.312C98.409,345.648 96.736,326.757 107.34,316.153ZM312.593,369.021C310.395,369.023 308.156,368.777 305.924,368.287L305.796,368.258L305.708,368.238L305.688,368.234C299.437,366.812 293.237,363.476 288.072,358.312C275.409,345.648 273.736,326.757 284.34,316.153C294.944,305.549 313.835,307.221 326.499,319.885C339.163,332.549 340.835,351.44 330.231,362.044C325.567,366.707 319.301,368.997 312.668,369.02C312.668,369.02 312.593,369.021 312.593,369.021ZM152.738,363.411C150.417,365.262 147.813,366.649 145.029,367.58C142.246,368.512 139.284,368.988 136.246,369.019C142.349,369.085 148.165,367.244 152.738,363.411ZM118.657,327.469C124.031,322.095 133.605,322.942 140.023,329.361C146.442,335.779 147.289,345.353 141.915,350.728C136.541,356.102 126.966,355.254 120.548,348.836C114.13,342.418 113.282,332.844 118.657,327.469ZM295.657,327.469C301.031,322.095 310.605,322.942 317.023,329.361C323.442,335.779 324.289,345.353 318.915,350.728C313.541,356.102 303.966,355.254 297.548,348.836C291.13,342.418 290.282,332.844 295.657,327.469ZM98.985,337.756C88.285,336.874 80.626,336.057 78.465,333.89C67.131,322.524 55.965,286.759 61.254,281.572C69.649,273.34 91.863,270.401 91.863,270.401C115.528,238.728 150.482,221.373 150.482,221.373C182.33,212.481 220.467,204.516 263.724,202.422C268.383,202.196 279.959,201.678 282.992,201.678L367.1,201.678C371.852,201.678 375.71,205.536 375.71,210.288C375.71,215.039 371.852,218.897 367.1,218.897L312.803,218.897C308.921,219.364 305.909,222.672 305.909,226.678C305.909,231.003 309.42,234.514 313.745,234.514L395.335,234.514C400.086,234.514 403.944,238.372 403.944,243.124C403.944,247.875 400.086,251.733 395.335,251.733L337.064,251.733C332.747,251.741 329.244,255.25 329.244,259.57C329.244,263.895 332.755,267.406 337.081,267.406L372.05,267.406L372.791,267.407C377.543,267.407 381.4,271.265 381.4,276.016C381.4,280.768 377.543,284.626 372.791,284.626L302.13,284.626C297.844,284.672 294.378,288.165 294.378,292.462C294.378,296.787 297.89,300.299 302.215,300.299L369.432,300.299L369.431,300.3L413.046,300.3C417.798,300.3 421.656,304.158 421.656,308.909C421.656,313.661 417.798,317.519 413.046,317.519L365.686,317.519C363.857,323.379 361.685,327.533 359.234,329.145C356.889,330.689 349.191,332.135 337.763,333.437C336.035,327.429 332.648,321.551 327.671,316.574C314.154,303.057 293.99,301.272 282.672,312.59C276.201,319.061 274.013,328.423 275.852,337.782C239.934,339.41 198.095,340.269 162.126,340.022C161.433,331.837 157.603,323.366 150.81,316.574C137.293,303.057 117.129,301.272 105.811,312.59C99.345,319.055 97.155,328.407 98.985,337.756ZM412.4,276.016C412.4,271.265 408.543,267.407 403.791,267.407L395.017,267.407C390.265,267.407 386.407,271.265 386.407,276.016C386.407,280.768 390.265,284.626 395.017,284.626L403.791,284.626C408.543,284.626 412.4,280.768 412.4,276.016Z" style="fill:rgb(51,102,255);"/>
            <g transform="matrix(0.86529,-0.274933,0.274933,0.86529,-74.1533,87.6535)">
                <path d="M110.518,230.974C110.518,230.974 33.446,220.408 250.649,347.93C467.853,475.452 417.729,423.711 415.573,415.088C415.573,415.088 496.957,509.407 246.337,360.113C-4.282,210.819 93.81,227.414 110.518,230.974Z" style="fill:rgb(255,219,4);"/>
            </g>
        </g>
        <g transform="matrix(1,0,0,1,455.777,179.19)">
            <text x="63.33px" y="24.143px" style="font-family:'Montserrat-Bold', 'Montserrat';font-weight:700;font-size:266.667px;fill:rgb(51,102,255);">C</text>
            <text x="255.064px" y="24.143px" style="font-family:'Montserrat-Bold', 'Montserrat';font-weight:700;font-size:266.667px;fill:rgb(255,219,4);">A</text>
            <text x="459.33px" y="24.143px" style="font-family:'Montserrat-Bold', 'Montserrat';font-weight:700;font-size:266.667px;fill:rgb(51,102,255);">RRV<tspan x="1040.13px " y="24.143px ">A</tspan></text>
        </g>
    </g>
</svg>
